<svg version="1.1" xmlns="http://www.w3.org/2000/svg" viewBox="0 0 370 126" width="370" height="126">
  <!-- svg-source:excalidraw -->
  
  <defs>
    <style class="style-fonts">
      @font-face {
        font-family: "Virgil";
        src: url("https://excalidraw.com/Virgil.woff2");
      }
      @font-face {
        font-family: "Cascadia";
        src: url("https://excalidraw.com/Cascadia.woff2");
      }
    </style>
    
  </defs>
  <rect x="0" y="0" width="370" height="126" fill="#ffffff"></rect><g stroke-linecap="round" transform="translate(10 10) rotate(0 175 53)"><path d="M3.97 10.07 C3.97 10.07, 3.97 10.07, 3.97 10.07 M3.97 10.07 C3.97 10.07, 3.97 10.07, 3.97 10.07 M0.43 20.25 C2.75 18.06, 7 13.36, 12.89 5.91 M0.43 20.25 C2.56 17.28, 5.61 13.65, 12.89 5.91 M3.44 22.87 C6.71 17.4, 11.17 15.99, 19.19 4.76 M3.44 22.87 C8.62 17.12, 14.18 10.18, 19.19 4.76 M3.18 29.27 C11.9 21.17, 21.79 11.58, 27.46 1.34 M3.18 29.27 C10.85 19.23, 19.67 9.8, 27.46 1.34 M3.58 34.91 C13.93 23.56, 22.24 11.58, 33.1 0.95 M3.58 34.91 C11.13 26.14, 19.18 15.23, 33.1 0.95 M3.32 41.31 C15.58 24.91, 31.03 12.24, 38.09 1.31 M3.32 41.31 C11.92 32.29, 19.04 23.08, 38.09 1.31 M3.71 46.95 C14.69 33.92, 29.76 17.28, 43.73 0.91 M3.71 46.95 C15.34 33.71, 26.33 21.89, 43.73 0.91 M3.45 53.35 C14.23 41.75, 25.51 27.72, 48.72 1.27 M3.45 53.35 C21.24 32.52, 37.33 12.61, 48.72 1.27 M3.19 59.75 C13.99 45.77, 27.12 31.08, 54.36 0.88 M3.19 59.75 C20.09 40.84, 35.95 22.65, 54.36 0.88 M3.58 65.39 C19.29 47.63, 34.94 26.49, 59.35 1.24 M3.58 65.39 C16.99 51.1, 28.33 34.92, 59.35 1.24 M3.32 71.79 C23.9 46.44, 46.63 23.53, 64.99 0.85 M3.32 71.79 C23.23 47.95, 45.5 22.08, 64.99 0.85 M3.72 77.43 C28.04 48.09, 51.51 21.63, 69.98 1.21 M3.72 77.43 C22.62 56.34, 39.08 36.4, 69.98 1.21 M1.49 86.09 C23.88 62.93, 42.61 38.85, 75.62 0.81 M1.49 86.09 C28.28 55.77, 53.38 25.49, 75.62 0.81 M2.54 90.98 C21.73 65.98, 45.79 41.54, 80.61 1.17 M2.54 90.98 C21.06 70.62, 39.86 49.7, 80.61 1.17 M3.59 95.87 C23.42 74.51, 39.7 53.11, 86.25 0.78 M3.59 95.87 C24.81 73.01, 45.08 48.48, 86.25 0.78 M6.61 98.49 C28.88 73.13, 54 45.36, 91.24 1.14 M6.61 98.49 C33.12 67.07, 61.3 35.45, 91.24 1.14 M9.63 101.12 C27.83 79.17, 45.63 58.65, 96.88 0.74 M9.63 101.12 C29.05 79.29, 46.51 58.35, 96.88 0.74 M12.64 103.74 C38.4 74.01, 67.46 44.97, 101.87 1.1 M12.64 103.74 C44.63 67.88, 75.64 31.02, 101.87 1.1 M16.32 105.61 C52.83 62.67, 88.2 24.06, 107.51 0.71 M16.32 105.61 C46.58 70.6, 77.41 34.55, 107.51 0.71 M21.31 105.97 C44.44 81.6, 66.86 53.25, 112.5 1.07 M21.31 105.97 C57.12 63.62, 94.43 23.27, 112.5 1.07 M26.29 106.33 C62.14 68.22, 94.37 28.32, 117.49 1.43 M26.29 106.33 C61.39 63.82, 98.33 24.21, 117.49 1.43 M31.94 105.94 C61.38 73.09, 92.08 36.58, 123.13 1.03 M31.94 105.94 C62.5 69.56, 95.52 32.49, 123.13 1.03 M36.92 106.3 C61.16 79.85, 83.82 56.63, 128.12 1.39 M36.92 106.3 C59.8 79.35, 83.83 52.23, 128.12 1.39 M42.57 105.9 C68.97 74.88, 95.84 44.61, 133.76 1 M42.57 105.9 C78.46 65.14, 113.28 26.28, 133.76 1 M47.55 106.26 C83.57 68.46, 117.93 28.61, 138.75 1.36 M47.55 106.26 C73.11 78.98, 96.41 49.95, 138.75 1.36 M53.2 105.87 C73.61 83.63, 91.73 63.28, 144.39 0.96 M53.2 105.87 C77.82 78.03, 100.87 50.55, 144.39 0.96 M58.18 106.23 C81.58 80.9, 106.49 53.81, 149.38 1.32 M58.18 106.23 C85.03 74.08, 114.77 40.85, 149.38 1.32 M63.83 105.83 C94.83 71.09, 124.11 37.44, 155.02 0.93 M63.83 105.83 C88.23 76.55, 112.61 48.68, 155.02 0.93 M68.81 106.19 C103.44 64.65, 138.56 25.05, 160.01 1.29 M68.81 106.19 C96.72 74.02, 124.37 42.44, 160.01 1.29 M74.46 105.8 C106.58 68.07, 141.65 32.28, 165.65 0.89 M74.46 105.8 C95.36 82.15, 117.21 58.52, 165.65 0.89 M79.44 106.16 C101.2 79.05, 122.64 53.97, 170.64 1.25 M79.44 106.16 C105.63 73.74, 133.45 43.41, 170.64 1.25 M85.09 105.76 C103.56 83.38, 123.4 58.78, 176.28 0.86 M85.09 105.76 C113.07 72.6, 139.68 40.06, 176.28 0.86 M90.07 106.13 C114.79 73.55, 142.33 40.97, 181.27 1.22 M90.07 106.13 C108.41 83.3, 128.54 62.63, 181.27 1.22 M95.72 105.73 C120.17 77.84, 145.14 48.27, 186.91 0.83 M95.72 105.73 C117.78 82.29, 137.89 57.2, 186.91 0.83 M100.7 106.09 C134.31 67.85, 167.53 25.69, 191.9 1.19 M100.7 106.09 C126.44 75.37, 151.64 48.16, 191.9 1.19 M106.35 105.7 C135.01 69.77, 167.59 37.38, 197.54 0.79 M106.35 105.7 C127.8 81.14, 148.01 56.23, 197.54 0.79 M111.33 106.06 C140.82 72.67, 167.12 42.34, 202.53 1.15 M111.33 106.06 C147.95 64.58, 184.43 24.07, 202.53 1.15 M116.32 106.42 C132.77 86.28, 154.23 61.64, 208.17 0.76 M116.32 106.42 C148.11 69.54, 179.66 33.95, 208.17 0.76 M121.96 106.02 C150.49 76.06, 176.4 42.57, 213.16 1.12 M121.96 106.02 C157.25 66.25, 190.92 25.69, 213.16 1.12 M126.95 106.38 C161.86 66.36, 194.11 30.67, 218.8 0.72 M126.95 106.38 C149.87 79.19, 173.32 52.12, 218.8 0.72 M132.59 105.99 C166.29 70.08, 199.25 30.56, 223.79 1.08 M132.59 105.99 C162.5 72.74, 190.56 38.46, 223.79 1.08 M137.58 106.35 C166.07 74.1, 193.09 42.36, 229.43 0.69 M137.58 106.35 C165.02 73.49, 192.6 43.56, 229.43 0.69 M143.22 105.95 C163.76 80.89, 184.76 59.62, 234.42 1.05 M143.22 105.95 C166.04 81.11, 187.17 55.13, 234.42 1.05 M148.21 106.31 C182.24 69.55, 214.52 31.35, 239.4 1.41 M148.21 106.31 C172.57 77.75, 194.75 51.53, 239.4 1.41 M153.85 105.92 C180.1 74.73, 206.39 43.76, 245.05 1.01 M153.85 105.92 C187.46 68.92, 219.47 30, 245.05 1.01 M158.84 106.28 C185.4 77.26, 210.18 49.55, 250.03 1.37 M158.84 106.28 C189.38 71.63, 218.83 36.2, 250.03 1.37 M164.48 105.88 C190.54 76.08, 215.75 48.22, 255.68 0.98 M164.48 105.88 C192.31 74.1, 221.59 41.25, 255.68 0.98 M169.47 106.24 C193.56 81.22, 214.21 51.83, 260.66 1.34 M169.47 106.24 C205.12 66.28, 239.55 24.69, 260.66 1.34 M175.11 105.85 C205.52 72.64, 232.18 39.07, 266.31 0.94 M175.11 105.85 C205.98 71.26, 235.6 36.9, 266.31 0.94 M180.1 106.21 C209.77 70.33, 240.26 37.03, 271.29 1.3 M180.1 106.21 C210.83 72.3, 239.93 38.7, 271.29 1.3 M185.74 105.81 C210.34 76.08, 238.48 45.33, 276.94 0.91 M185.74 105.81 C221.88 64.37, 257.58 23.86, 276.94 0.91 M190.73 106.17 C223.63 70.87, 253.72 35.15, 281.92 1.27 M190.73 106.17 C217.19 75.77, 244.82 45.23, 281.92 1.27 M196.37 105.78 C227.33 72.07, 252.72 40.67, 287.57 0.88 M196.37 105.78 C224.42 72.72, 255.69 37.41, 287.57 0.88 M201.36 106.14 C221.46 83.81, 237.3 65.19, 292.55 1.24 M201.36 106.14 C225.67 79.08, 248.39 51.9, 292.55 1.24 M207 105.75 C229.26 80.75, 252.06 56.2, 298.2 0.84 M207 105.75 C235.04 74.37, 261.85 42.21, 298.2 0.84 M211.99 106.11 C229.18 83.88, 249.15 62.75, 303.18 1.2 M211.99 106.11 C235.69 79.41, 260.66 51.95, 303.18 1.2 M217.63 105.71 C248.56 69.5, 277.74 31.88, 308.83 0.81 M217.63 105.71 C245.79 71.99, 275.69 38.58, 308.83 0.81 M222.62 106.07 C255.26 67.13, 286.11 29.05, 313.81 1.17 M222.62 106.07 C255.4 67.82, 289.16 29.82, 313.81 1.17 M228.26 105.68 C247.42 81.05, 268.99 56.04, 319.46 0.77 M228.26 105.68 C259.46 69.16, 291.81 32.32, 319.46 0.77 M233.25 106.04 C252.28 84.77, 268.06 63.19, 324.44 1.13 M233.25 106.04 C258.28 77.23, 284.23 46.6, 324.44 1.13 M238.24 106.4 C267.52 68.87, 301.42 35.36, 329.43 1.49 M238.24 106.4 C271.22 66.19, 306.55 26.04, 329.43 1.49 M243.88 106 C278.75 65.26, 316.03 23.54, 333.76 2.61 M243.88 106 C275.01 68.4, 308.37 30.15, 333.76 2.61 M248.87 106.36 C273.63 77.49, 295.15 50.14, 338.09 3.72 M248.87 106.36 C279.91 72.26, 309.44 38.53, 338.09 3.72 M254.51 105.97 C285.02 67.75, 317.56 33.12, 341.77 5.59 M254.51 105.97 C274.23 83.1, 294.09 60.89, 341.77 5.59 M259.5 106.33 C277.17 86.89, 296.51 63.78, 344.79 8.22 M259.5 106.33 C276.98 85.74, 295.44 66.23, 344.79 8.22 M265.14 105.93 C283.86 86.29, 298.43 64.54, 347.15 11.59 M265.14 105.93 C286.4 80.51, 307.6 56.12, 347.15 11.59 M270.13 106.29 C296.79 79.87, 319.85 50.93, 348.86 15.73 M270.13 106.29 C296.39 75.97, 321.71 48.58, 348.86 15.73 M275.77 105.9 C296.23 84.28, 315.38 62.94, 349.91 20.62 M275.77 105.9 C306.69 72.57, 334.66 38.16, 349.91 20.62 M280.76 106.26 C306.31 79.47, 328.66 53.2, 349.65 27.01 M280.76 106.26 C296.72 88.81, 312.49 70.57, 349.65 27.01 M286.4 105.86 C302.4 87.77, 321.83 65.3, 350.04 32.66 M286.4 105.86 C306.31 83.08, 326.3 59.71, 350.04 32.66 M291.39 106.22 C304.67 92.05, 317.35 75.17, 349.78 39.06 M291.39 106.22 C304.26 91.75, 317.75 75.69, 349.78 39.06 M297.03 105.83 C307.02 92.77, 318.98 80.39, 350.17 44.7 M297.03 105.83 C308.49 91.41, 321.06 77.63, 350.17 44.7 M302.02 106.19 C314.12 89.36, 329.12 73.67, 349.91 51.1 M302.02 106.19 C316.91 89.55, 330.49 73.8, 349.91 51.1 M307.66 105.8 C320.52 89.98, 335.9 75.6, 350.31 56.74 M307.66 105.8 C318.41 90.51, 331.92 77.16, 350.31 56.74 M312.65 106.16 C321.17 95.25, 328.92 86.05, 350.04 63.14 M312.65 106.16 C323.75 93.91, 334.2 80.44, 350.04 63.14 M318.29 105.76 C325.81 96.33, 333.06 90.18, 350.44 68.78 M318.29 105.76 C329.86 92.17, 342.47 77.04, 350.44 68.78 M323.28 106.12 C332.12 97.7, 341.23 89.47, 350.18 75.18 M323.28 106.12 C332.64 94.78, 343.79 83.07, 350.18 75.18 M326.3 108.75 C333.26 103.31, 338.6 93.03, 351.23 80.07 M326.3 108.75 C335.21 98.16, 344.74 87.15, 351.23 80.07 M333.25 106.84 C341.49 100.32, 347.21 91.3, 349.66 87.97 M333.25 106.84 C339.65 99.05, 346.12 91.82, 349.66 87.97 M10.42 102.33 C10.42 102.33, 10.42 102.33, 10.42 102.33 M10.42 102.33 C10.42 102.33, 10.42 102.33, 10.42 102.33 M16.82 102.59 C11.85 99.57, 9.55 94.68, 6.25 93.41 M16.82 102.59 C13.68 100.18, 11.08 97.09, 6.25 93.41 M26.99 106.14 C21.64 100.75, 11.89 93.35, 2.08 84.49 M26.99 106.14 C19.89 99.11, 12.08 94.17, 2.08 84.49 M32.63 105.74 C26.85 101.93, 18.3 96.37, 1.69 78.84 M32.63 105.74 C23.52 98.69, 13.43 91.09, 1.69 78.84 M39.03 106 C30.5 97.54, 19.42 89.58, 2.05 73.86 M39.03 106 C23.76 93.94, 10.13 81.69, 2.05 73.86 M44.67 105.61 C27.03 93.61, 14.88 76.59, 1.65 68.21 M44.67 105.61 C29.91 94.22, 16.75 80.84, 1.65 68.21 M51.07 105.87 C31.05 90.1, 13.93 75.58, 2.01 63.23 M51.07 105.87 C31.15 89.61, 12.2 72.14, 2.01 63.23 M57.47 106.13 C47.39 97, 33.4 85.19, 1.62 57.58 M57.47 106.13 C44.63 95.14, 31.41 85.34, 1.62 57.58 M63.11 105.74 C45.47 89.32, 26.94 72.8, 1.98 52.6 M63.11 105.74 C39.55 85.51, 16.16 65.34, 1.98 52.6 M69.51 106 C44.88 85.67, 17.17 64.3, 1.59 46.95 M69.51 106 C50.94 89.27, 31.3 72.93, 1.59 46.95 M75.15 105.6 C49.12 84.21, 24.31 60.09, 1.95 41.97 M75.15 105.6 C52.46 85.92, 28.49 64.39, 1.95 41.97 M81.55 105.86 C54.86 80.75, 28.25 58.64, 1.55 36.32 M81.55 105.86 C56.73 84.58, 32.51 63.83, 1.55 36.32 M87.95 106.13 C71.68 89.62, 52.84 73.88, 1.91 31.34 M87.95 106.13 C53.71 77.88, 20.19 49.13, 1.91 31.34 M93.59 105.73 C63.54 81.07, 32.9 54.65, 1.52 25.69 M93.59 105.73 C56.81 74.78, 21.83 44.54, 1.52 25.69 M99.99 105.99 C78.34 87.67, 52.59 64.29, 1.12 20.05 M99.99 105.99 C62.1 72.58, 22.79 38.23, 1.12 20.05 M105.63 105.6 C65.91 67.67, 22.32 35.28, 2.24 15.72 M105.63 105.6 C70.63 76.88, 35.96 46.01, 2.24 15.72 M112.03 105.86 C66.36 67.45, 25.12 32.17, 3.35 11.39 M112.03 105.86 C84.61 83.9, 55.84 59.74, 3.35 11.39 M118.43 106.12 C85.17 75.47, 50.65 45.14, 5.98 8.37 M118.43 106.12 C74.83 68.15, 30.42 29.6, 5.98 8.37 M124.07 105.73 C85.23 72.77, 49.18 38.76, 8.6 5.35 M124.07 105.73 C96.91 81.53, 70.59 59.44, 8.6 5.35 M130.47 105.99 C90.26 73, 55.25 41.18, 11.22 2.33 M130.47 105.99 C88.47 68.05, 45.97 32.73, 11.22 2.33 M136.11 105.59 C105.41 80.4, 75.64 55.55, 16.11 1.28 M136.11 105.59 C98.33 72.85, 60.68 40.66, 16.11 1.28 M142.51 105.86 C101.23 69.17, 60.71 33.75, 21 0.23 M142.51 105.86 C108.07 77.53, 76.25 49.86, 21 0.23 M148.91 106.12 C116.61 79.72, 81.02 49.79, 26.64 -0.17 M148.91 106.12 C115.82 75.82, 82.47 45.85, 26.64 -0.17 M154.55 105.72 C106.35 63.31, 61.15 24.97, 33.04 0.1 M154.55 105.72 C114.58 72.36, 76.33 38.97, 33.04 0.1 M160.95 105.98 C129.51 76.41, 94.21 46.98, 38.68 -0.3 M160.95 105.98 C114.59 66.5, 67.37 24.94, 38.68 -0.3 M166.59 105.59 C124.35 72.49, 82.27 35.22, 45.08 -0.04 M166.59 105.59 C130.16 74.18, 91.73 40.46, 45.08 -0.04 M172.99 105.85 C145.71 81.37, 113.92 56.05, 50.73 -0.43 M172.99 105.85 C139.11 76.09, 104.53 47.03, 50.73 -0.43 M179.39 106.11 C133.51 62.77, 86.4 22.1, 57.12 -0.17 M179.39 106.11 C152.38 81.88, 124.27 57.98, 57.12 -0.17 M185.03 105.72 C147.6 76.48, 115.02 45.14, 63.52 0.09 M185.03 105.72 C144.45 70.09, 103.57 33.27, 63.52 0.09 M191.43 105.98 C145.01 66.83, 99.23 24.41, 69.16 -0.3 M191.43 105.98 C159.42 78.6, 126.92 48.82, 69.16 -0.3 M197.07 105.58 C162.68 73.71, 124.65 44.61, 75.56 -0.04 M197.07 105.58 C165.11 78.64, 130.55 47.86, 75.56 -0.04 M203.47 105.85 C174.61 78.04, 143.05 49.89, 81.2 -0.44 M203.47 105.85 C155.73 65.71, 109.26 25.75, 81.2 -0.44 M209.87 106.11 C177.76 78.58, 144.34 50.34, 87.6 -0.17 M209.87 106.11 C169.93 69.86, 127.86 33.76, 87.6 -0.17 M215.51 105.71 C189 80.1, 160.09 55.22, 94 0.09 M215.51 105.71 C170.67 68.13, 127.05 30.8, 94 0.09 M221.91 105.97 C187.24 76.72, 150.51 44.91, 99.64 -0.31 M221.91 105.97 C181.58 69.06, 141.33 33.19, 99.64 -0.31 M227.55 105.58 C199.97 82.29, 170.8 57.61, 106.04 -0.05 M227.55 105.58 C186.18 69.55, 143.5 34.22, 106.04 -0.05 M233.95 105.84 C203.99 77.53, 172.98 52.14, 111.68 -0.44 M233.95 105.84 C210.07 83.14, 183.78 62.1, 111.68 -0.44 M240.35 106.1 C216.62 83.39, 190.28 59.59, 118.08 -0.18 M240.35 106.1 C204.4 74.19, 167.35 44.54, 118.08 -0.18 M245.99 105.71 C207.67 69.71, 167.2 36.53, 124.48 0.08 M245.99 105.71 C217.16 80.85, 187.7 55.53, 124.48 0.08 M252.39 105.97 C220.21 74.49, 182.89 45.2, 130.12 -0.31 M252.39 105.97 C209.76 70.32, 168.3 34.16, 130.12 -0.31 M258.03 105.57 C224.13 76.01, 190.07 47.28, 136.52 -0.05 M258.03 105.57 C227.18 77.25, 195.24 50.75, 136.52 -0.05 M264.43 105.84 C220.55 67.54, 174.48 31.62, 142.16 -0.45 M264.43 105.84 C235.59 80.8, 207.34 55.92, 142.16 -0.45 M270.82 106.1 C231.47 74.9, 197.37 41.59, 148.56 -0.18 M270.82 106.1 C241.97 80.19, 214.36 56.26, 148.56 -0.18 M276.47 105.7 C236.24 73.42, 201.29 41.49, 154.96 0.08 M276.47 105.7 C241.79 74.26, 205.79 43.73, 154.96 0.08 M282.87 105.96 C253.02 80.12, 222.34 55.42, 160.6 -0.32 M282.87 105.96 C249.3 78.95, 215.58 48.98, 160.6 -0.32 M288.51 105.57 C260.37 84.07, 233.85 60.09, 167 -0.06 M288.51 105.57 C257.65 79.69, 227.33 53.03, 167 -0.06 M294.91 105.83 C244.15 62.88, 195.67 21.47, 172.64 -0.45 M294.91 105.83 C266.07 81.32, 236.92 56.46, 172.64 -0.45 M301.3 106.09 C258.36 69.83, 220.45 36.59, 179.04 -0.19 M301.3 106.09 C255 63.48, 205.98 22.05, 179.04 -0.19 M306.95 105.7 C278.35 80.23, 251.45 56.41, 185.44 0.07 M306.95 105.7 C270.13 73.39, 233.54 40.38, 185.44 0.07 M313.35 105.96 C276.63 72.26, 240.88 42.78, 191.08 -0.32 M313.35 105.96 C283.44 78.24, 253.92 52.49, 191.08 -0.32 M318.99 105.56 C279.52 70.47, 242.36 37.69, 197.48 -0.06 M318.99 105.56 C290.08 82.3, 259.92 56.63, 197.48 -0.06 M324.63 105.17 C288.56 75.15, 249.48 42.81, 203.12 -0.46 M324.63 105.17 C290.35 75.38, 255.1 44.92, 203.12 -0.46 M329.52 104.12 C305.35 83.33, 280.75 61.76, 209.52 -0.19 M329.52 104.12 C293.95 74.14, 260.69 43.41, 209.52 -0.19 M334.41 103.07 C288.13 63.07, 247.31 27.02, 215.92 0.07 M334.41 103.07 C306.69 78.03, 279.4 54.87, 215.92 0.07 M338.54 101.36 C303.33 70.09, 266.42 36.31, 221.56 -0.33 M338.54 101.36 C303.42 71.7, 266.58 38.73, 221.56 -0.33 M341.92 99 C312.6 72.33, 278.42 43.11, 227.96 -0.07 M341.92 99 C303.14 67.69, 266.19 33.59, 227.96 -0.07 M345.3 96.64 C316.39 69.1, 285.62 44.31, 233.6 -0.46 M345.3 96.64 C319.22 73.58, 291.06 50.59, 233.6 -0.46 M347.92 93.62 C305.53 58.9, 260.84 21.77, 240 -0.2 M347.92 93.62 C317.04 67.39, 284.64 39.43, 240 -0.2 M349.79 89.94 C316.05 58.79, 278.48 26.46, 246.4 0.06 M349.79 89.94 C309.22 53.18, 267.17 18.89, 246.4 0.06 M350.15 84.96 C324.4 61.98, 297.45 41.02, 252.04 -0.33 M350.15 84.96 C316.78 55.52, 285.13 27.24, 252.04 -0.33 M350.51 79.97 C327.93 61.04, 307.3 44.3, 258.44 -0.07 M350.51 79.97 C330.31 62, 309.18 44.17, 258.44 -0.07 M352.38 76.29 C332.98 60.52, 313.39 40.75, 264.08 -0.47 M352.38 76.29 C320.48 48.64, 289.33 21.65, 264.08 -0.47 M352.74 71.31 C328.83 48.84, 304.05 28.13, 270.48 -0.2 M352.74 71.31 C325.82 47.71, 300.35 24.78, 270.48 -0.2 M352.35 65.66 C324.43 41.56, 293.32 16.24, 276.88 0.06 M352.35 65.66 C324.41 41.2, 295.17 16.09, 276.88 0.06 M352.71 60.68 C333.14 43.26, 312.9 24.89, 282.52 -0.34 M352.71 60.68 C338.24 47.04, 323.94 35.93, 282.52 -0.34 M352.31 55.03 C336.22 40.73, 322.39 28.41, 288.92 -0.08 M352.31 55.03 C335.64 40.39, 317.53 24.65, 288.92 -0.08 M352.67 50.05 C342.63 40.68, 328.41 29.77, 294.56 -0.47 M352.67 50.05 C332.21 31.26, 308.6 12.37, 294.56 -0.47 M352.28 44.4 C336.61 31.19, 323.69 17.98, 300.96 -0.21 M352.28 44.4 C340.67 34.29, 327.78 23.4, 300.96 -0.21 M352.64 39.42 C338.51 27.57, 327.19 17.48, 307.36 0.05 M352.64 39.42 C343.85 31.61, 333.79 21.22, 307.36 0.05 M352.25 33.77 C339.55 22.09, 323.03 10.95, 313 -0.34 M352.25 33.77 C339.41 23.1, 326.2 10.84, 313 -0.34 M352.61 28.79 C339.84 17.75, 329.02 6.79, 319.4 -0.08 M352.61 28.79 C341.2 19.85, 330.12 9.57, 319.4 -0.08 M352.21 23.14 C341.9 15.37, 334.31 5.78, 324.29 -1.13 M352.21 23.14 C342.76 15.51, 332.78 6.57, 324.29 -1.13 M351.82 17.5 C348.38 14.69, 341.31 9, 331.44 -0.21 M351.82 17.5 C344.35 10.36, 336.45 3.92, 331.44 -0.21" stroke="#a5d8ff" stroke-width="0.5" fill="none"></path><path d="M26.5 0 M26.5 0 C89.08 0.58, 152.8 0.61, 323.5 0 M26.5 0 C116.45 -1.71, 205.61 -0.68, 323.5 0 M323.5 0 C341.4 0.44, 349.34 10.2, 350 26.5 M323.5 0 C342.79 -2, 349.03 6.95, 350 26.5 M350 26.5 C348.32 46.93, 350.66 66.27, 350 79.5 M350 26.5 C350.54 46.69, 350.18 69.05, 350 79.5 M350 79.5 C348.17 98.76, 342.04 104.49, 323.5 106 M350 79.5 C349.42 96.69, 339.46 106.37, 323.5 106 M323.5 106 C257.29 105.63, 188.92 106.86, 26.5 106 M323.5 106 C246.65 106.19, 171.06 106.69, 26.5 106 M26.5 106 C9.75 105.38, 0.55 96.43, 0 79.5 M26.5 106 C9.3 104.73, 2.18 96.87, 0 79.5 M0 79.5 C0.53 64.82, -0.29 48.5, 0 26.5 M0 79.5 C1 60.82, 0.66 40.25, 0 26.5 M0 26.5 C-1.3 9.4, 9.47 0.64, 26.5 0 M0 26.5 C1.71 10.3, 7.46 2.01, 26.5 0" stroke="#1e1e1e" stroke-width="1" fill="none"></path></g></svg>